UNKNOWN
version=1
nRows=71
nColumns=9
inDegrees=no
endheader
time	time	pelvis_tilt	hip_flexion_r	hip_flexion_l	knee_angle_r	knee_angle_l	ankle_angle_r	ankle_angle_l
     88.00000000	      5.25000000	     -6.06431089	    -35.90623790	      5.45207441	    -12.83619010	     -2.80931671	      6.84759729	      0.65216026
     89.00000000	      5.26000000	     -5.55273002	    -35.39806546	      5.34364835	    -15.33781750	     -4.19285728	      5.97534964	     -1.22094522
     90.00000000	      5.27000000	     -4.89835305	    -34.71847343	      5.12796234	    -18.08609352	     -5.37224590	      4.65124000	     -3.27050981
     91.00000000	      5.28000000	     -4.09189968	    -33.85153135	      4.84562159	    -21.09777135	     -6.51338608	      2.80147450	     -5.02641444
     92.00000000	      5.29000000	     -3.15319589	    -32.75179790	      4.57866862	    -24.39638792	     -7.80670439	      0.35880035	     -6.09978622
     93.00000000	      5.30000000	     -2.13346355	    -31.38921681	      4.42288667	    -27.95051611	     -9.35459903	     -2.76693919	     -6.37349559
     94.00000000	      5.31000000	     -1.09540718	    -29.74581684	      4.36955596	    -31.72247753	    -11.13249679	     -6.49829228	     -5.93272755
     95.00000000	      5.32000000	     -0.12289155	    -27.87274673	      4.38878169	    -35.57658086	    -12.99816137	    -10.73560697	     -5.01201290
     96.00000000	      5.33000000	      0.72667235	    -25.89250393	      4.30315075	    -39.35153536	    -14.71096409	    -15.22525603	     -3.85429070
     97.00000000	      5.34000000	      1.41668695	    -23.78182803	      4.13413857	    -42.97388083	    -16.15725744	    -19.43673801	     -2.57576904
     98.00000000	      5.35000000	      1.91117569	    -21.89952773	      3.50517271	    -46.25938420	    -17.10882908	    -22.91564307	     -1.39333429
     99.00000000	      5.36000000	      2.23667014	    -19.92211298	      2.77754048	    -49.35245704	    -17.70039082	    -24.92321860	     -0.24301223
    100.00000000	      5.37000000	      2.36854448	    -18.12888267	      1.68308792	    -52.12914534	    -17.83644963	    -25.37890268	      0.65716017
    101.00000000	      5.38000000	      2.36041692	    -16.24444550	      0.55528626	    -54.64284899	    -17.67201229	    -24.35588079	      1.40068058
    102.00000000	      5.39000000	      2.22953502	    -14.37858490	     -0.67575721	    -56.81036681	    -17.23105636	    -22.33395852	      1.85106329
    103.00000000	      5.40000000	      2.04891099	    -12.45200856	     -1.90162614	    -58.62824159	    -16.59517736	    -19.90326541	      2.07714343
    104.00000000	      5.41000000	      1.78891969	    -10.45468289	     -3.08833822	    -60.10089648	    -15.85844619	    -17.51050086	      2.14597953
    105.00000000	      5.42000000	      1.52359861	     -8.40958445	     -4.23875087	    -61.24304375	    -15.05676634	    -15.43242220	      2.11872469
    106.00000000	      5.43000000	      1.25010636	     -6.35598427	     -5.36039137	    -62.05720123	    -14.23851870	    -13.73420396	      2.08966861
    107.00000000	      5.44000000	      0.98230642	     -4.34752796	     -6.47970875	    -62.55190956	    -13.43081614	    -12.32234452	      2.11137539
    108.00000000	      5.45000000	      0.69675549	     -2.41389765	     -7.58200110	    -62.70714128	    -12.63863882	    -11.07342410	      2.18283967
    109.00000000	      5.46000000	      0.41288484	     -0.64463492	     -8.76225116	    -62.53041151	    -11.85075926	     -9.82689471	      2.38950079
    110.00000000	      5.47000000	      0.13194067	      1.03685004	     -9.87815831	    -62.03829167	    -11.14235421	     -8.50591311	      2.68287197
    111.00000000	      5.48000000	     -0.12803058	      2.57332062	    -10.98544981	    -61.22441533	    -10.49203008	     -7.07789761	      3.06151171
    112.00000000	      5.49000000	     -0.37390866	      3.89295123	    -12.12353481	    -60.06771657	     -9.90346988	     -5.57338245	      3.51759455
    113.00000000	      5.50000000	     -0.60833555	      5.01481762	    -13.29293182	    -58.56662853	     -9.33706276	     -4.14193188	      3.98656519
    114.00000000	      5.51000000	     -0.83247997	      5.95537609	    -14.51148901	    -56.72324734	     -8.74508593	     -2.93570339	      4.41495341
    115.00000000	      5.52000000	     -0.96397719	      6.82210265	    -15.67321863	    -54.60946732	     -8.17763589	     -1.94756451	      4.80847460
    116.00000000	      5.53000000	     -1.03032127	      7.57107402	    -16.83828524	    -52.21799804	     -7.60561027	     -1.26119605	      5.16600288
    117.00000000	      5.54000000	     -1.00119265	      8.24129060	    -17.96632607	    -49.58746475	     -7.05297557	     -0.81282309	      5.49476202
    118.00000000	      5.55000000	     -0.90097638	      8.79069631	    -19.10962056	    -46.72035986	     -6.49734287	     -0.54119255	      5.80917353
    119.00000000	      5.56000000	     -0.73056551	      9.23991063	    -20.24436864	    -43.63644225	     -5.95518428	     -0.32851544	      6.12743664
    120.00000000	      5.57000000	     -0.50968606	      9.58460011	    -21.37897176	    -40.33580896	     -5.41287094	     -0.08108742	      6.45833003
    121.00000000	      5.58000000	     -0.24346322	      9.83138750	    -22.51278636	    -36.81816691	     -4.85687880	      0.23508652	      6.79574796
    122.00000000	      5.59000000	      0.03924229	      9.97468955	    -23.64382614	    -33.07214235	     -4.28985271	      0.61077336	      7.14487951
    123.00000000	      5.60000000	      0.31174255	      9.98070579	    -24.80479284	    -29.09431241	     -3.69029249	      1.00410875	      7.45648477
    124.00000000	      5.61000000	      0.59458444	      9.92468490	    -25.92955360	    -24.95723722	     -3.11134417	      1.36456981	      7.79831619
    125.00000000	      5.62000000	      0.85863928	      9.79316952	    -27.03795675	    -20.71242549	     -2.55469978	      1.65078011	      8.13781357
    126.00000000	      5.63000000	      1.09664729	      9.60513707	    -28.13051179	    -16.45774952	     -2.03635549	      1.83106628	      8.47637577
    127.00000000	      5.64000000	      1.32127241	      9.42080407	    -29.15019610	    -12.33638763	     -1.63633959	      1.91720487	      8.84880870
    128.00000000	      5.65000000	      1.51313163	      9.22602418	    -30.12162159	     -8.46471332	     -1.34934661	      1.90052029	      9.23963987
    129.00000000	      5.66000000	      1.68748879	      9.04227657	    -31.03548025	     -4.99037986	     -1.20782489	      1.82430713	      9.63847621
    130.00000000	      5.67000000	      1.84907510	      8.90062111	    -31.89015093	     -2.08490969	     -1.22557939	      1.78608874	     10.03789229
    131.00000000	      5.68000000	      1.99148869	      8.81575815	    -32.69568575	      0.10099486	     -1.40881487	      1.89460810	     10.40134132
    132.00000000	      5.69000000	      2.14688605	      8.84382393	    -33.42323275	      1.40698021	     -1.80837687	      2.30415001	     10.78577455
    133.00000000	      5.70000000	      2.28070778	      8.99866162	    -34.06185278	      1.79501278	     -2.40611492	      2.97924872	     11.10573564
    134.00000000	      5.71000000	      2.33432855	      9.24529862	    -34.59728421	      1.32227426	     -3.24549630	      3.79461471	     11.39844161
    135.00000000	      5.72000000	      2.30272487	      9.54730138	    -35.03544525	      0.11210237	     -4.30443446	      4.49294986	     11.60875624
    136.00000000	      5.73000000	      2.16620662	      9.86897106	    -35.37053771	     -1.64284692	     -5.58762964	      4.80356586	     11.70906961
    137.00000000	      5.74000000	      1.93857058	     10.18663428	    -35.59296331	     -3.70546006	     -7.09234480	      4.55152215	     11.65647938
    138.00000000	      5.75000000	      1.62706096	     10.41978341	    -35.70186318	     -5.78439240	     -8.84105479	      3.67751178	     11.36696929
    139.00000000	      5.76000000	      1.22536369	     10.51980576	    -35.68732612	     -7.66805741	    -10.84002880	      2.24053276	     10.77026423
    140.00000000	      5.77000000	      0.78384372	     10.41887959	    -35.51951631	     -9.25341114	    -13.15663138	      0.48004898	      9.80034674
    141.00000000	      5.78000000	      0.25984938	     10.13327142	    -35.16405041	    -10.58360238	    -15.80136439	     -1.27086312	      8.36164108
    142.00000000	      5.79000000	     -0.35418956	      9.70110490	    -34.57427933	    -11.77381231	    -18.82771271	     -2.66877931	      6.39329106
    143.00000000	      5.80000000	     -1.04144369	      9.20052454	    -33.69929221	    -12.95857501	    -22.22929620	     -3.43858520	      3.77109047
    144.00000000	      5.81000000	     -1.77213847	      8.70481747	    -32.50362022	    -14.20864159	    -25.97624648	     -3.58040275	      0.44747269
    145.00000000	      5.82000000	     -2.49405155	      8.24402507	    -30.98674834	    -15.49629365	    -29.96517002	     -3.24233256	     -3.60661944
    146.00000000	      5.83000000	     -3.16051499	      7.73494942	    -29.23882204	    -16.70523533	    -34.03142542	     -2.59159190	     -8.35044319
    147.00000000	      5.84000000	     -3.67955527	      7.24539182	    -27.22078327	    -17.74808759	    -38.02155897	     -1.82109969	    -13.66578212
    148.00000000	      5.85000000	     -4.09874843	      6.56446566	    -25.14698494	    -18.45922267	    -41.75443872	     -1.00151189	    -19.19741227
    149.00000000	      5.86000000	     -4.42868990	      5.66816538	    -23.07190807	    -18.78091364	    -45.17496513	     -0.23129621	    -24.39571369
    150.00000000	      5.87000000	     -4.66770009	      4.48129998	    -21.08187229	    -18.64488863	    -48.26353093	      0.33109717	    -28.63663384
    151.00000000	      5.88000000	     -4.82434751	      3.09512930	    -19.12592191	    -18.17093521	    -51.13296003	      0.74776643	    -31.25442112
    152.00000000	      5.89000000	     -4.84488380	      1.64557587	    -17.09147097	    -17.43461617	    -53.81361833	      1.03540216	    -31.98384719
    153.00000000	      5.90000000	     -4.74667405	      0.20203679	    -14.96185898	    -16.53382912	    -56.28560106	      1.22999690	    -30.94324343
    154.00000000	      5.91000000	     -4.54155133	     -1.21329008	    -12.78316733	    -15.57296840	    -58.49376232	      1.34109740	    -28.55873474
    155.00000000	      5.92000000	     -4.24882782	     -2.58761416	    -10.56882972	    -14.60259738	    -60.37665311	      1.48092379	    -25.46502063
    156.00000000	      5.93000000	     -3.86507340	     -3.88083513	     -8.32476281	    -13.69287495	    -61.91456740	      1.65574198	    -22.22282582
    157.00000000	      5.94000000	     -3.46363368	     -5.11374931	     -6.09097942	    -12.81701515	    -63.08949582	      1.85902892	    -19.28512271
    158.00000000	      5.95000000	     -3.08379139	     -6.31223344	     -3.90392850	    -11.96211813	    -63.90497269	      2.04931681	    -16.89682320
